<?xml version="1.0" standalone="no"?>
<!DOCTYPE svg PUBLIC "-//W3C//DTD SVG 20010904//EN"
 "http://www.w3.org/TR/2001/REC-SVG-20010904/DTD/svg10.dtd">
<svg version="1.0" xmlns="http://www.w3.org/2000/svg"
 width="274.000000pt" height="274.000000pt" viewBox="0 0 274.000000 274.000000"
 preserveAspectRatio="xMidYMid meet">
<metadata>
Created by potrace 1.14, written by Peter Selinger 2001-2017
</metadata>
<g transform="translate(0.000000,274.000000) scale(0.100000,-0.100000)"
fill="#000000" stroke="none">
<path d="M983 1845 l-112 -100 -1 -158 0 -159 38 30 c20 17 72 64 115 104 l78
73 -3 155 -3 154 -112 -99z"/>
<path d="M1839 1667 l-304 -274 -3 269 c-1 147 -5 268 -7 268 -6 0 -1125 -999
-1188 -1060 l-38 -37 149 1 149 1 131 113 c71 61 133 112 137 112 16 0 -8 -98
-37 -153 -37 -68 -83 -111 -155 -144 -51 -24 -62 -25 -255 -24 l-202 0 -107
-112 -107 -112 321 -3 c350 -3 383 1 495 55 79 39 181 141 220 223 47 95 62
182 61 340 l-1 135 63 58 c35 32 76 67 92 78 l27 20 0 -198 c0 -163 8 -372 14
-380 1 -1 206 185 456 413 l455 414 135 0 135 0 135 135 135 135 -302 0 -301
0 -303 -273z"/>
<path d="M2015 1410 l-120 -110 4 -227 c2 -126 5 -232 8 -236 8 -13 224 -7
229 7 2 6 3 160 2 343 l-3 332 -120 -109z"/>
</g>
</svg>
